<mxfile host="www.draw.io" modified="2019-10-22T09:49:27.635Z" agent="Mozilla/5.0 (X11; Linux x86_64) AppleWebKit/537.36 (KHTML, like Gecko) Chrome/71.0.3578.98 Safari/537.36" etag="k6FYbJQvJ6qV9VkvYy_y" version="12.1.3" type="github" pages="1">
  <diagram name="Page-1" id="c7558073-3199-34d8-9f00-42111426c3f3">
    <mxGraphModel dx="787" dy="480" grid="1" gridSize="10" guides="1" tooltips="1" connect="1" arrows="1" fold="1" page="1" pageScale="1" pageWidth="826" pageHeight="1169" background="#ffffff" math="0" shadow="0">
      <root>
        <mxCell id="0"/>
        <mxCell id="1" parent="0"/>
        <mxCell id="2" value="&lt;p style=&quot;margin: 4px 0px 0px ; text-align: center&quot;&gt;HelloCash&lt;/p&gt;&lt;p style=&quot;margin: 4px 0px 0px ; text-align: center&quot;&gt;Transaction&amp;nbsp;&lt;/p&gt;&lt;p style=&quot;margin: 4px 0px 0px ; text-align: center&quot;&gt;Manager&lt;/p&gt;&lt;p style=&quot;margin: 4px 0px 0px ; text-align: center&quot;&gt;(ISOMUX)&lt;/p&gt;" style="verticalAlign=middle;align=center;overflow=fill;fontSize=12;fontFamily=Helvetica;html=1;rounded=1;fontStyle=1;strokeWidth=3;fillColor=#647687;strokeColor=#314354;fontColor=#ffffff;" parent="1" vertex="1">
          <mxGeometry x="355" y="130" width="110" height="90" as="geometry"/>
        </mxCell>
        <mxCell id="3" value="LIB&#xa;HelloCash" style="whiteSpace=wrap;align=center;verticalAlign=middle;fontStyle=1;strokeWidth=3;fillColor=#f0a30a;strokeColor=#BD7000;fontColor=#ffffff;" parent="1" vertex="1">
          <mxGeometry x="10" y="133" width="100" height="84" as="geometry"/>
        </mxCell>
        <mxCell id="4" value="LIB&#xa;CBS" style="whiteSpace=wrap;align=center;verticalAlign=middle;fontStyle=1;strokeWidth=3;fillColor=#1ba1e2;strokeColor=#006EAF;fontColor=#ffffff;" parent="1" vertex="1">
          <mxGeometry x="781" y="129" width="90" height="84" as="geometry"/>
        </mxCell>
        <mxCell id="5" value="&#xa;ETHSWTCH&#xa;" style="shape=process;whiteSpace=wrap;align=center;verticalAlign=middle;size=0.0475;fontStyle=1;strokeWidth=3;fillColor=#a20025;strokeColor=#6F0000;fontColor=#ffffff;fontSize=25;" parent="1" vertex="1">
          <mxGeometry x="209.99999999999991" y="390" width="400" height="50" as="geometry"/>
        </mxCell>
        <mxCell id="36" value="" style="edgeStyle=none;noEdgeStyle=1;strokeColor=#BD7000;strokeWidth=2;fillColor=#f0a30a;entryX=-0.036;entryY=0.333;entryDx=0;entryDy=0;entryPerimeter=0;" parent="1" edge="1" target="2">
          <mxGeometry width="100" height="100" relative="1" as="geometry">
            <mxPoint x="110" y="160" as="sourcePoint"/>
            <mxPoint x="350" y="164" as="targetPoint"/>
            <Array as="points"/>
          </mxGeometry>
        </mxCell>
        <mxCell id="37" value="" style="edgeStyle=none;noEdgeStyle=1;strokeColor=#006EAF;strokeWidth=2;fillColor=#1ba1e2;" parent="1" source="4" target="2" edge="1">
          <mxGeometry width="100" height="100" relative="1" as="geometry">
            <mxPoint x="280" y="190" as="sourcePoint"/>
            <mxPoint x="380" y="90" as="targetPoint"/>
          </mxGeometry>
        </mxCell>
        <mxCell id="11" value="&lt;p style=&quot;margin: 0px ; margin-top: 4px ; text-align: center ; text-decoration: underline&quot;&gt;HelloCash&amp;nbsp;&lt;/p&gt;&lt;p style=&quot;margin: 0px ; margin-top: 4px ; text-align: center ; text-decoration: underline&quot;&gt;TM&lt;/p&gt;&lt;p style=&quot;margin: 0px ; margin-top: 4px ; text-align: center ; text-decoration: underline&quot;&gt;(ISOMUX)&lt;/p&gt;" style="verticalAlign=middle;align=center;overflow=fill;fontSize=12;fontFamily=Helvetica;html=1;rounded=1;fontStyle=1;strokeWidth=3;fillColor=#647687;strokeColor=#314354;fontColor=#ffffff;" parent="1" vertex="1">
          <mxGeometry x="343.49999999999994" y="590" width="110" height="90" as="geometry"/>
        </mxCell>
        <mxCell id="56" value="" style="edgeStyle=elbowEdgeStyle;elbow=horizontal;strokeColor=#6F0000;strokeWidth=2;fillColor=#a20025;" parent="1" source="2" target="5" edge="1">
          <mxGeometry width="100" height="100" relative="1" as="geometry">
            <mxPoint x="50" y="500" as="sourcePoint"/>
            <mxPoint x="150" y="400" as="targetPoint"/>
            <Array as="points">
              <mxPoint x="401" y="300"/>
              <mxPoint x="280" y="360"/>
            </Array>
          </mxGeometry>
        </mxCell>
        <mxCell id="88" value="" style="edgeStyle=elbowEdgeStyle;elbow=horizontal;strokeColor=#990000;strokeWidth=2" parent="1" source="5" target="11" edge="1">
          <mxGeometry width="100" height="100" relative="1" as="geometry">
            <mxPoint x="50" y="500" as="sourcePoint"/>
            <mxPoint x="150" y="400" as="targetPoint"/>
            <Array as="points">
              <mxPoint x="390" y="470"/>
            </Array>
          </mxGeometry>
        </mxCell>
        <mxCell id="89" value="" style="edgeStyle=elbowEdgeStyle;elbow=horizontal;strokeColor=#990000;strokeWidth=2" parent="1" source="11" target="5" edge="1">
          <mxGeometry width="100" height="100" relative="1" as="geometry">
            <mxPoint x="59.999999999999886" y="510" as="sourcePoint"/>
            <mxPoint x="159.9999999999999" y="410" as="targetPoint"/>
            <Array as="points">
              <mxPoint x="410" y="470"/>
            </Array>
          </mxGeometry>
        </mxCell>
        <mxCell id="95" value="SOAP API response  " style="text;spacingTop=-5;align=center;rotation=-90;fontStyle=1" parent="1" vertex="1">
          <mxGeometry x="380" y="488" width="117" height="49" as="geometry"/>
        </mxCell>
        <mxCell id="96" value="ISO  Message &#xa;to debit HC pool &#xa;and Credit Wegagen pool " style="text;spacingTop=-5;align=center;rotation=-90;fontStyle=1" parent="1" vertex="1">
          <mxGeometry x="330" y="500" width="30" height="20" as="geometry"/>
        </mxCell>
        <mxCell id="NKkgWCKWEFarxGGxpJ5g-107" value="" style="edgeStyle=none;noEdgeStyle=1;strokeColor=#006EAF;strokeWidth=2;fillColor=#1ba1e2;exitX=1;exitY=0.25;exitDx=0;exitDy=0;entryX=0;entryY=0.25;entryDx=0;entryDy=0;" parent="1" edge="1" target="4" source="2">
          <mxGeometry width="100" height="100" relative="1" as="geometry">
            <mxPoint x="481.5" y="154" as="sourcePoint"/>
            <mxPoint x="706.5" y="154" as="targetPoint"/>
            <Array as="points"/>
          </mxGeometry>
        </mxCell>
        <mxCell id="NKkgWCKWEFarxGGxpJ5g-110" value="" style="edgeStyle=elbowEdgeStyle;elbow=horizontal;strokeColor=#990000;strokeWidth=2;entryX=0.627;entryY=1.011;entryDx=0;entryDy=0;entryPerimeter=0;" parent="1" target="2" edge="1">
          <mxGeometry width="100" height="100" relative="1" as="geometry">
            <mxPoint x="425.5" y="391" as="sourcePoint"/>
            <mxPoint x="425.5" y="322" as="targetPoint"/>
            <Array as="points">
              <mxPoint x="424" y="290"/>
            </Array>
          </mxGeometry>
        </mxCell>
        <mxCell id="NKkgWCKWEFarxGGxpJ5g-113" value="Wegagen&#xa;CBS" style="whiteSpace=wrap;align=center;verticalAlign=middle;fontStyle=1;strokeWidth=3;fillColor=#fa6800;strokeColor=#C73500;fontColor=#ffffff;" parent="1" vertex="1">
          <mxGeometry x="661" y="595" width="120" height="80" as="geometry"/>
        </mxCell>
        <mxCell id="NKkgWCKWEFarxGGxpJ5g-114" value="Wegagen&#xa;HelloCash" style="whiteSpace=wrap;align=center;verticalAlign=middle;fontStyle=1;strokeWidth=3;fillColor=#f0a30a;strokeColor=#BD7000;fontColor=#ffffff;" parent="1" vertex="1">
          <mxGeometry x="30" y="600" width="90" height="84" as="geometry"/>
        </mxCell>
        <mxCell id="NKkgWCKWEFarxGGxpJ5g-118" value="" style="edgeStyle=none;noEdgeStyle=1;strokeColor=#B20000;strokeWidth=2;exitX=0.017;exitY=0.675;exitDx=0;exitDy=0;exitPerimeter=0;fillColor=#e51400;" parent="1" source="NKkgWCKWEFarxGGxpJ5g-113" edge="1">
          <mxGeometry width="100" height="100" relative="1" as="geometry">
            <mxPoint x="616.5" y="650" as="sourcePoint"/>
            <mxPoint x="453.5" y="650" as="targetPoint"/>
            <Array as="points"/>
          </mxGeometry>
        </mxCell>
        <mxCell id="NKkgWCKWEFarxGGxpJ5g-119" value="" style="edgeStyle=none;noEdgeStyle=1;strokeColor=#BD7000;strokeWidth=2;fillColor=#f0a30a;" parent="1" edge="1">
          <mxGeometry width="100" height="100" relative="1" as="geometry">
            <mxPoint x="341" y="620" as="sourcePoint"/>
            <mxPoint x="121" y="620" as="targetPoint"/>
            <Array as="points"/>
          </mxGeometry>
        </mxCell>
        <mxCell id="NKkgWCKWEFarxGGxpJ5g-122" value="" style="edgeStyle=none;noEdgeStyle=1;strokeColor=#B20000;strokeWidth=2;entryX=1.026;entryY=1.133;entryDx=0;entryDy=0;entryPerimeter=0;fillColor=#e51400;" parent="1" target="NKkgWCKWEFarxGGxpJ5g-135" edge="1">
          <mxGeometry width="100" height="100" relative="1" as="geometry">
            <mxPoint x="453.5" y="620" as="sourcePoint"/>
            <mxPoint x="623.53" y="620.028" as="targetPoint"/>
          </mxGeometry>
        </mxCell>
        <mxCell id="NKkgWCKWEFarxGGxpJ5g-123" value="" style="edgeStyle=none;noEdgeStyle=1;strokeColor=#BD7000;strokeWidth=2;fillColor=#f0a30a;" parent="1" edge="1">
          <mxGeometry width="100" height="100" relative="1" as="geometry">
            <mxPoint x="121" y="641.5" as="sourcePoint"/>
            <mxPoint x="341" y="641.5" as="targetPoint"/>
          </mxGeometry>
        </mxCell>
        <mxCell id="NKkgWCKWEFarxGGxpJ5g-125" value="" style="edgeStyle=none;noEdgeStyle=1;strokeColor=#BD7000;strokeWidth=2;fillColor=#f0a30a;entryX=1.01;entryY=0.595;entryDx=0;entryDy=0;entryPerimeter=0;" parent="1" edge="1" target="3">
          <mxGeometry width="100" height="100" relative="1" as="geometry">
            <mxPoint x="355" y="181.08588957055213" as="sourcePoint"/>
            <mxPoint x="120" y="181" as="targetPoint"/>
          </mxGeometry>
        </mxCell>
        <mxCell id="NKkgWCKWEFarxGGxpJ5g-129" value="SOAP API request&#xa; to ETS " style="text;spacingTop=-5;align=center;direction=north;rotation=-90;fontStyle=1" parent="1" vertex="1">
          <mxGeometry x="370" y="290" width="20" height="30" as="geometry"/>
        </mxCell>
        <mxCell id="NKkgWCKWEFarxGGxpJ5g-135" value="&lt;b&gt;ISO message 0200 call to debit&amp;nbsp;&lt;br&gt;1000 birr from poll account&lt;/b&gt;" style="text;html=1;resizable=0;points=[];autosize=1;align=left;verticalAlign=top;spacingTop=-4;" parent="1" vertex="1">
          <mxGeometry x="465" y="585" width="190" height="30" as="geometry"/>
        </mxCell>
        <mxCell id="NKkgWCKWEFarxGGxpJ5g-136" value="&lt;b&gt;00&lt;/b&gt;" style="text;html=1;resizable=0;points=[];autosize=1;align=left;verticalAlign=top;spacingTop=-4;" parent="1" vertex="1">
          <mxGeometry x="510" y="650" width="30" height="20" as="geometry"/>
        </mxCell>
        <mxCell id="NKkgWCKWEFarxGGxpJ5g-137" value="&lt;b&gt;HCAPI to credit 1000 Birr&lt;br&gt;to Customer Wallet&lt;/b&gt;" style="text;html=1;resizable=0;points=[];autosize=1;align=left;verticalAlign=top;spacingTop=-4;" parent="1" vertex="1">
          <mxGeometry x="150" y="585" width="160" height="30" as="geometry"/>
        </mxCell>
        <mxCell id="NKkgWCKWEFarxGGxpJ5g-139" value="&lt;b&gt;Procccesed&amp;nbsp;&lt;/b&gt;" style="text;html=1;resizable=0;points=[];autosize=1;align=left;verticalAlign=top;spacingTop=-4;" parent="1" vertex="1">
          <mxGeometry x="171" y="650" width="90" height="20" as="geometry"/>
        </mxCell>
        <mxCell id="NKkgWCKWEFarxGGxpJ5g-140" value="ISO 1200 Message &#xa;to debit LIB pool &#xa;and Credit ETS " style="text;spacingTop=-5;align=center;direction=north;rotation=-90;fontStyle=1" parent="1" vertex="1">
          <mxGeometry x="427.5" y="275" width="22" height="30" as="geometry"/>
        </mxCell>
        <mxCell id="NKkgWCKWEFarxGGxpJ5g-149" value="AIF call to Debit LIB pool &amp; credit HC pool" style="text;spacingTop=-5;align=center;fontStyle=1" parent="1" vertex="1">
          <mxGeometry x="581.5" y="131" width="25" height="44" as="geometry"/>
        </mxCell>
        <mxCell id="NKkgWCKWEFarxGGxpJ5g-151" value="hold transaction on Pending &#xa; 1000 Birr from Wallet to pool" style="text;spacingTop=-5;align=center;fontStyle=1" parent="1" vertex="1">
          <mxGeometry x="198.5" y="120" width="25" height="2" as="geometry"/>
        </mxCell>
        <mxCell id="NKkgWCKWEFarxGGxpJ5g-158" value="change pending to Procesed" style="text;spacingTop=-5;align=center;fontStyle=1" parent="1" vertex="1">
          <mxGeometry x="188.5" y="190" width="25" height="2" as="geometry"/>
        </mxCell>
        <mxCell id="NKkgWCKWEFarxGGxpJ5g-163" value="ACSP" style="text;spacingTop=-5;align=center;fontStyle=1" parent="1" vertex="1">
          <mxGeometry x="560" y="178" width="25" height="44" as="geometry"/>
        </mxCell>
        <mxCell id="NKkgWCKWEFarxGGxpJ5g-167" value="1" style="ellipse;whiteSpace=wrap;html=1;aspect=fixed;fillColor=#f0a30a;strokeColor=#BD7000;fontColor=#ffffff;" parent="1" vertex="1">
          <mxGeometry x="295.5" y="111.5" width="43" height="43" as="geometry"/>
        </mxCell>
        <mxCell id="NKkgWCKWEFarxGGxpJ5g-169" value="2" style="ellipse;whiteSpace=wrap;html=1;aspect=fixed;fillColor=#a20025;strokeColor=#6F0000;fontColor=#ffffff;" parent="1" vertex="1">
          <mxGeometry x="317" y="268.5" width="43" height="43" as="geometry"/>
        </mxCell>
        <mxCell id="NKkgWCKWEFarxGGxpJ5g-170" value="3" style="ellipse;whiteSpace=wrap;html=1;aspect=fixed;fillColor=#a20025;strokeColor=#6F0000;fontColor=#ffffff;" parent="1" vertex="1">
          <mxGeometry x="287" y="485.5" width="43" height="43" as="geometry"/>
        </mxCell>
        <mxCell id="NKkgWCKWEFarxGGxpJ5g-171" value="4" style="ellipse;whiteSpace=wrap;html=1;aspect=fixed;fillColor=#e51400;strokeColor=#B20000;fontColor=#ffffff;" parent="1" vertex="1">
          <mxGeometry x="551" y="543" width="43" height="43" as="geometry"/>
        </mxCell>
        <mxCell id="NKkgWCKWEFarxGGxpJ5g-172" value="5" style="ellipse;whiteSpace=wrap;html=1;aspect=fixed;fillColor=#e51400;strokeColor=#B20000;fontColor=#ffffff;" parent="1" vertex="1">
          <mxGeometry x="585" y="642" width="43" height="43" as="geometry"/>
        </mxCell>
        <mxCell id="NKkgWCKWEFarxGGxpJ5g-173" value="7" style="ellipse;whiteSpace=wrap;html=1;aspect=fixed;fillColor=#f0a30a;strokeColor=#BD7000;fontColor=#ffffff;" parent="1" vertex="1">
          <mxGeometry x="257.5" y="642" width="43" height="43" as="geometry"/>
        </mxCell>
        <mxCell id="NKkgWCKWEFarxGGxpJ5g-174" value="9" style="ellipse;whiteSpace=wrap;html=1;aspect=fixed;fillColor=#a20025;strokeColor=#6F0000;fontColor=#ffffff;" parent="1" vertex="1">
          <mxGeometry x="441" y="347" width="43" height="43" as="geometry"/>
        </mxCell>
        <mxCell id="NKkgWCKWEFarxGGxpJ5g-175" value="11" style="ellipse;whiteSpace=wrap;html=1;aspect=fixed;gradientColor=#7ea6e0;fillColor=#dae8fc;strokeColor=#6c8ebf;" parent="1" vertex="1">
          <mxGeometry x="670" y="171" width="43" height="43" as="geometry"/>
        </mxCell>
        <mxCell id="NKkgWCKWEFarxGGxpJ5g-176" value="10" style="ellipse;whiteSpace=wrap;html=1;aspect=fixed;fillColor=#dae8fc;strokeColor=#6c8ebf;gradientColor=#7ea6e0;" parent="1" vertex="1">
          <mxGeometry x="713" y="107.5" width="43" height="43" as="geometry"/>
        </mxCell>
        <mxCell id="NKkgWCKWEFarxGGxpJ5g-177" value="12" style="ellipse;whiteSpace=wrap;html=1;aspect=fixed;fillColor=#f0a30a;strokeColor=#BD7000;fontColor=#ffffff;" parent="1" vertex="1">
          <mxGeometry x="300.5" y="179" width="43" height="43" as="geometry"/>
        </mxCell>
        <mxCell id="NKkgWCKWEFarxGGxpJ5g-178" value="6" style="ellipse;whiteSpace=wrap;html=1;aspect=fixed;fillColor=#f0a30a;strokeColor=#BD7000;fontColor=#ffffff;" parent="1" vertex="1">
          <mxGeometry x="300.5" y="578.5" width="43" height="43" as="geometry"/>
        </mxCell>
        <mxCell id="NKkgWCKWEFarxGGxpJ5g-179" value="8" style="ellipse;whiteSpace=wrap;html=1;aspect=fixed;fillColor=#a20025;strokeColor=#6F0000;fontColor=#ffffff;" parent="1" vertex="1">
          <mxGeometry x="441" y="485.5" width="43" height="43" as="geometry"/>
        </mxCell>
        <mxCell id="qHffJVlvO2PUyd9b3DOc-97" value="&lt;font style=&quot;font-size: 48px&quot;&gt;&lt;u&gt;&lt;b&gt;A2A From LIB to Wegagen Flow Diagram&lt;/b&gt;&lt;/u&gt;&lt;/font&gt;" style="text;html=1;resizable=0;points=[];autosize=1;align=left;verticalAlign=top;spacingTop=-4;" vertex="1" parent="1">
          <mxGeometry x="40" width="950" height="30" as="geometry"/>
        </mxCell>
      </root>
    </mxGraphModel>
  </diagram>
</mxfile>
